<svg xmlns="http://www.w3.org/2000/svg" version="1.1" xmlns:xlink="http://www.w3.org/1999/xlink" width="512" height="512" x="0" y="0" viewBox="0 0 100.1 100.1" style="enable-background:new 0 0 512 512" xml:space="preserve"><g transform="matrix(1.38,0,0,1.38,-19.01994737625123,-19.01519889831544)"><path d="M48.23 82.17c8.46 0 16.2-3.12 22.15-8.26l11.16 11.16c.49.49 1.13.73 1.77.73s1.28-.24 1.77-.73c.98-.98.98-2.56 0-3.54L73.92 70.37c5.14-5.95 8.26-13.69 8.26-22.15 0-18.71-15.23-33.94-33.94-33.94S14.29 29.52 14.29 48.23s15.23 33.94 33.94 33.94zm0-62.88c15.96 0 28.94 12.98 28.94 28.94 0 7.86-3.15 14.99-8.25 20.21-.09.07-.18.13-.26.21s-.15.17-.21.26c-5.22 5.1-12.35 8.25-20.21 8.25-15.96 0-28.94-12.98-28.94-28.94s12.98-28.94 28.94-28.94z" fill="#000000" opacity="1" data-original="#000000"></path></g></svg>