<svg fill="none" height="512" viewBox="0 0 24 24" width="512" xmlns="http://www.w3.org/2000/svg"><path d="m16 15h-8c-1.32559.0016-2.59644.5289-3.53378 1.4662-.93734.9374-1.46463 2.2082-1.46622 3.5338v2c0 .2652.10536.5196.29289.7071.18754.1875.44189.2929.70711.2929h16c.2652 0 .5196-.1054.7071-.2929s.2929-.4419.2929-.7071v-2c-.0016-1.3256-.5289-2.5964-1.4662-3.5338-.9374-.9373-2.2082-1.4646-3.5338-1.4662zm3 6h-14v-1c0-.7956.31607-1.5587.87868-2.1213s1.32567-.8787 2.12132-.8787h8c.7956 0 1.5587.3161 2.1213.8787s.8787 1.3257.8787 2.1213zm-.293-10.293c.1117-.1121.1953-.249.2437-.3997.0485-.1506.0606-.31056.0352-.46674-.0254-.15619-.0875-.30413-.1812-.43165-.0936-.12752-.2162-.23099-.3577-.30191-1.384-.694-1.447-3.058-1.447-3.107 0-1.32608-.5268-2.59785-1.4645-3.53553-.9376-.93769-2.2094-1.46447-3.5355-1.46447s-2.59785.52678-3.53553 1.46447c-.93769.93768-1.46447 2.20945-1.46447 3.53553 0 .024-.055 2.412-1.447 3.108-.14146.07092-.26406.17439-.35774.30191-.09369.12752-.15577.27546-.18115.43165-.02538.15618-.01333.31614.03515.46674.04848.1507.13202.2876.24374.3997 1.86824 1.5796 4.26275 2.3979 6.707 2.292 2.4444.1056 4.8389-.713 6.707-2.293zm-9.707-4.707c0-.79565.31607-1.55871.87868-2.12132.56262-.56261 1.32572-.87868 2.12132-.87868s1.5587.31607 2.1213.87868.8787 1.32567.8787 2.12132c.0187 1.42778.4919 2.81246 1.351 3.953-1.3361.7175-2.8347 1.0781-4.351 1.047-1.5162.031-3.01486-.3296-4.351-1.047.85911-1.14054 1.33235-2.52522 1.351-3.953z" fill="rgb(0,0,0)"/></svg>