<svg xmlns="http://www.w3.org/2000/svg" version="1.1" xmlns:xlink="http://www.w3.org/1999/xlink" width="512" height="512" x="0" y="0" viewBox="0 0 512 512" style="enable-background:new 0 0 512 512" xml:space="preserve" class=""><g><path fill-rule="evenodd" d="M118.816 157.478v-20.295c0-36.466 14.508-71.135 40.278-96.905S219.533 0 256 0s71.136 14.508 96.905 40.278c25.77 25.77 40.278 60.439 40.278 96.905v20.295h34.694a33.663 33.663 0 0 1 33.61 30.819l24.918 287.049c.846 9.743-2.135 18.51-8.745 25.718-6.61 7.209-15.084 10.936-24.865 10.936H59.202c-9.781 0-18.255-3.727-24.865-10.936-6.61-7.208-9.59-15.975-8.745-25.718l24.919-287.049a33.663 33.663 0 0 1 33.61-30.819zm270.399 3.969h-40.484v91.055c0 11.178 9.064 20.242 20.242 20.242s20.242-9.065 20.242-20.242zm-44.452-3.969v-20.295c0-23.602-9.42-45.995-26.094-62.669C301.996 57.841 279.602 48.421 256 48.421s-45.995 9.42-62.669 26.093c-16.673 16.674-26.093 39.067-26.093 62.669v20.295zm-181.494 3.969h-40.484v91.055c0 11.178 9.064 20.242 20.242 20.242s20.242-9.064 20.242-20.242z" clip-rule="evenodd" fill="#4D9078" opacity="1" data-original="#000000" class=""></path></g></svg>