<svg xmlns="http://www.w3.org/2000/svg" version="1.1" xmlns:xlink="http://www.w3.org/1999/xlink" width="512" height="512" x="0" y="0" viewBox="0 0 24 24" style="enable-background:new 0 0 512 512" xml:space="preserve"><g transform="matrix(1.2200000000000004,0,0,1.2200000000000004,-2.640000000000006,-2.640000000000006)"><path d="M12 11.75c2.62 0 4.75-2.13 4.75-4.75S14.62 2.25 12 2.25 7.25 4.38 7.25 7s2.13 4.75 4.75 4.75zm0-8c1.79 0 3.25 1.46 3.25 3.25s-1.46 3.25-3.25 3.25S8.75 8.79 8.75 7 10.21 3.75 12 3.75zM15 13.25H9c-3.17 0-5.75 2.58-5.75 5.75 0 1.52 1.23 2.75 2.75 2.75h12c1.52 0 2.75-1.23 2.75-2.75 0-3.17-2.58-5.75-5.75-5.75zm3 7H6c-.69 0-1.25-.56-1.25-1.25A4.26 4.26 0 0 1 9 14.75h6A4.26 4.26 0 0 1 19.25 19c0 .69-.56 1.25-1.25 1.25z" fill="#000000" opacity="1" data-original="#000000"></path></g></svg>