<svg xmlns="http://www.w3.org/2000/svg" version="1.1" xmlns:xlink="http://www.w3.org/1999/xlink" width="512" height="512" x="0" y="0" viewBox="0 0 330.063 330.063" style="enable-background:new 0 0 512 512" xml:space="preserve"><g><path d="M326.551 91.828c-5.609-22-17.583-40.984-34.626-54.899-16.691-13.627-37.175-21.132-57.676-21.132-26.426 0-50.435 11.752-69.243 33.519-18.797-21.765-42.798-33.519-69.216-33.519-20.494 0-40.97 7.505-57.657 21.133C21.096 50.845 9.124 69.827 3.515 91.825c-6.046 23.71-7.266 61.521 21.261 107.015 25.939 41.367 70.701 79.584 133.042 113.592a14.996 14.996 0 0 0 14.366.001c62.359-34.009 107.137-72.227 133.087-113.591 28.54-45.493 27.325-83.305 21.28-107.014zM165.003 282.115C19.895 200.327 26.863 121.673 32.584 99.239 40.48 68.273 67.063 45.798 95.79 45.798c21.983 0 42.006 13.074 56.38 36.814a15 15 0 0 0 12.828 7.231h.003c5.245 0 10.11-2.74 12.828-7.227 14.388-23.743 34.425-36.818 56.419-36.818 28.743 0 55.336 22.476 63.231 53.442 5.721 22.434 12.706 101.076-132.476 182.875z" fill="#ED7D3A" opacity="1" data-original="#000000"></path></g></svg>